<svg xmlns="http://www.w3.org/2000/svg" viewBox="0 0 32 32">
  <path d="M15.9.087l.854 1.604c.192.296.4.558.645.802.715.715 1.394 1.464 2.004 2.266 1.447 1.9 2.423 4.01 3.12 6.292.418 1.394.645 2.824.662 4.27.07 4.323-1.412 8.035-4.4 11.12-.488.488-1.01.94-1.57 1.342-.296 0-.436-.227-.558-.436-.227-.383-.366-.802-.436-1.222-.105-.523-.174-1.046-.14-1.586v-.244C16.057 24.21 15.796.21 15.9.087z" fill="#599636"/>
  <path d="M15.9.034c-.035-.07-.07-.034-.105.052.017.17-.105.244-.192.382-.296.244-.523.54-.767.854-.767.972-1.464 2.004-1.995 3.12-.784 1.73-1.146 3.57-1.412 5.445-.105.627-.122 1.27-.157 1.9-.035.634.053 1.23.157 1.83.208 1.178.662 2.266 1.308 3.3.61.972 1.343 1.84 2.135 2.678.296.244.61.453.926.662 0 .035 0 .07.017.122.017.012.017.03.035.03.018.07.052.017.07 0 .05-.022.05-.09.05-.14-.184-1.53-.174-3.055-.174-4.586.022-.774.105-1.565.21-2.32.142-.94.435-1.83.8-2.7.437-.998.992-1.934 1.675-2.803.157-.174.244-.523.47-.61.017 0 .035-.017.035-.035.14.314.244.61.314.94.105.557.122 1.1.105 1.665-.017.635-.105 1.27-.262 1.887-.244 1.1-.767 2.074-1.343 3.055-.313.522-.66 1.01-1.045 1.494-.088.122-.227.226-.262.382-.035.104.018.21.088.28.07.076.174.076.262.076.244-.052.47-.174.662-.296.523-.383.992-.82 1.412-1.306.784-.94 1.412-2.023 1.83-3.19.244-.714.47-1.447.558-2.196.07-.384.087-.774.087-1.164 0-.418-.017-.818-.087-1.222-.17-.872-.523-1.675-.976-2.45-.42-.732-.976-1.395-1.586-1.978-.21-.174-.435-.383-.68-.505-.226-.087-.47-.087-.697.018zM18.996 2.63c.017 0 .035 0 .053.018.017 0 .035.017.052.034.192.4.314.837.366 1.274.087.54.07 1.097-.035 1.638-.017.105-.035.226-.088.313-.035-.018-.07-.035-.088-.07-.14-.157-.244-.349-.33-.558-.21-.558-.314-1.15-.314-1.743 0-.313.035-.61.087-.905.018-.088.053-.192.088-.28.052-.052.157-.07.21 0z" fill="#6cac48"/>
</svg> 