<svg xmlns="http://www.w3.org/2000/svg" viewBox="0 0 128 128">
  <path d="M48.697 121.944V97.024H27.712l-.184 11.2h-6.86L.232 71.79h.044l20.52-36.436h6.86l-.184 11.2h20.985V6.056L64 0l15.543 6.056v39.497h20.984l-.184-11.2h6.86L128 70.79h-.044l-20.617 36.436h-6.86l.183-11.2H79.543v24.92L64 128l-15.303-6.056zm0-34.919h-13.77l-6.954 11.75-.169-11.75-5.302.035L12.033 71.41l10.569-15.865 5.302.035.17-11.75 6.953 11.75h13.67V28.734l-10.33-4.047v7.65L27.503 18.687v90.626l10.864-13.649v7.649l10.33-4.047V72.025zm62.238-15.9L99.967 56.59l-10.57 15.866-5.301-.035-.17 11.75-6.953-11.75h-13.67v26.845l10.33 4.047v-7.65l10.864 13.65V18.686L73.632 32.336v-7.65l-10.33 4.047v26.846h13.771l6.953-11.75.17 11.75 5.301-.035z" fill="#130754"/>
</svg> 